<svg version="1.1" id="Layer_1" xmlns="http://www.w3.org/2000/svg" xmlns:xlink="http://www.w3.org/1999/xlink" x="0px" y="0px" viewBox="0 0 512 512" style="enable-background:new 0 0 512 512;" xml:space="preserve"><g id="XMLID_1_"><polyline id="XMLID_3_" points="165.7,425.4 86.6,346.3 75.4,357.5 154.5,436.6 	"/><polygon id="XMLID_4_" points="81,351.9 73.5,348.2 0,496.2 15.8,512 164.8,437.5 512,90.3 421.7,0 74.5,347.2 73.5,348.2 
		81,351.9 86.6,357.5 421.7,22.3 489.7,90.3 155.5,424.5 19.5,492.5 14.9,488.7 9.3,494.3 16.8,498 88.4,355.6 81,351.9 86.6,357.5 
			"/><polyline id="XMLID_5_" points="434.7,156.4 355.6,77.3 344.4,88.4 423.6,167.6 	"/><polyline id="XMLID_6_" points="466.4,124.7 387.3,45.6 376.1,56.8 455.2,135.9 	"/><polygon id="XMLID_7_" points="39.1,438.5 66.1,445.9 73.5,472.9 88.4,469.2 79.1,432.9 42.8,423.6 	"/></g></svg>